<svg xmlns="http://www.w3.org/2000/svg" width="1400" height="760" viewBox="0 0 1400 760"><defs><linearGradient id="bg" x1="0" y1="0" x2="1" y2="1"><stop offset="0" stop-color="#081526"/><stop offset="1" stop-color="#112f46"/></linearGradient><marker id="arrow" markerWidth="10" markerHeight="10" refX="9" refY="3" orient="auto"><path d="M0,0 L0,6 L9,3 z" fill="#62d9c8"/></marker></defs><rect width="1400" height="760" rx="28" fill="url(#bg)"/><text x="70" y="70" fill="#fff" font-size="34" font-family="sans-serif" font-weight="700">Compliance-first B2B Outreach Automation</text><text x="70" y="105" fill="#a8c5d8" font-size="18" font-family="sans-serif">公開情報の収集から営業実行まで、送信しない条件を各段階で強制</text><g font-family="sans-serif"><rect x="60" y="175" width="230" height="150" rx="18" fill="#173d5a" stroke="#58a6ff"/><text x="85" y="215" fill="#8fc8ff" font-size="18" font-weight="700">INPUT</text><text x="85" y="252" fill="#fff" font-size="20">許可済みURL / CSV</text><rect x="350" y="175" width="250" height="150" rx="18" fill="#164d4b" stroke="#62d9c8"/><text x="375" y="215" fill="#72ead7" font-size="18" font-weight="700">DISCOVERY</text><text x="375" y="252" fill="#fff" font-size="20">巡回・抽出・重複排除</text><rect x="660" y="150" width="300" height="200" rx="18" fill="#4a315d" stroke="#c69cff"/><text x="685" y="190" fill="#d9baff" font-size="18" font-weight="700">GOVERNANCE GATE</text><text x="685" y="226" fill="#fff" font-size="18">拒否 / 同意 / 停止 / 承認</text><text x="685" y="256" fill="#fff" font-size="18">上限 / 冪等性</text><rect x="1020" y="175" width="300" height="150" rx="18" fill="#5a3b20" stroke="#ffb86b"/><text x="1045" y="215" fill="#ffc58f" font-size="18" font-weight="700">DELIVERY</text><text x="1045" y="252" fill="#fff" font-size="20">SMTP / 許可済みフォーム</text><rect x="350" y="470" width="610" height="170" rx="18" fill="#1e3449" stroke="#7dd3fc"/><text x="380" y="512" fill="#9be1ff" font-size="18" font-weight="700">AUDIT &amp; OPERATIONS</text><text x="380" y="552" fill="#fff" font-size="20">SQLite / CSV / EML / 実行履歴</text></g><g stroke="#62d9c8" stroke-width="4" fill="none" marker-end="url(#arrow)"><path d="M290 250 H350"/><path d="M600 250 H660"/><path d="M960 250 H1020"/><path d="M1170 325 V410 H820 V470"/><path d="M500 325 V470"/></g></svg>